<svg width="506" height="505" viewBox="0 0 506 505" fill="none" xmlns="http://www.w3.org/2000/svg">
<path d="M260 259.847L109.202 300L54 245.153L204.798 205L260 259.847Z" fill="#5D26CB"/>
<path d="M259.422 260L204 204.787L244.578 54L300 109.196L259.422 260Z" fill="#4A19A6"/>
<path d="M260 259.983L259.932 260L205.009 205.081L54.9736 245.286L0 190.316L40.2415 40.2219L190.328 0L245.285 54.953L205.06 205.03L260 259.983Z" fill="#6A2CE6"/>
<path d="M109.659 299.89L259.706 259.679L259.758 259.729L314.668 314.656L274.457 464.755L274.389 464.789L124.324 505L14.4365 395.096L54.6641 244.979L54.7314 244.963L109.659 299.89Z" fill="#4B11BF"/>
<path d="M505.062 124.264L464.834 274.379L464.698 274.413L314.719 314.606L259.843 259.714L300.036 248.94L259.842 259.714L259.774 259.663L300.002 109.547L245.059 54.6035L395.157 14.376L505.062 124.264Z" fill="#390A93"/>
<path d="M353.01 141.78C353.01 138.575 355.566 135.982 358.725 135.982C361.883 135.982 364.439 138.575 364.439 141.78C364.439 144.984 361.883 147.578 358.725 147.578C355.566 147.578 353.01 144.984 353.01 141.78ZM366.301 150.041H351.294C350.217 150.041 349.34 150.93 349.34 152.023V165.119C349.34 166.212 350.217 167.101 351.294 167.101H353.083V180.808C353.083 181.901 353.959 182.79 355.037 182.79H362.577C363.654 182.79 364.531 181.901 364.531 180.808V167.101H366.32C367.397 167.101 368.273 166.212 368.273 165.119V152.023C368.273 150.93 367.397 150.041 366.32 150.041H366.301ZM375.558 141.78C378.497 141.78 380.871 139.372 380.871 136.39C380.871 133.408 378.497 131 375.558 131C372.618 131 370.245 133.408 370.245 136.39C370.245 139.372 372.618 141.78 375.558 141.78ZM382.624 144.077H368.638C367.634 144.077 366.831 144.892 366.831 145.911V146.114C369.807 146.392 372.162 148.911 372.162 152.005V165.1C372.162 166.805 371.45 168.323 370.318 169.398V172.713C370.318 173.732 371.121 174.547 372.126 174.547H379.136C380.141 174.547 380.944 173.732 380.944 172.713V159.951H382.605C383.609 159.951 384.413 159.136 384.413 158.117V145.929C384.413 144.91 383.609 144.095 382.605 144.095L382.624 144.077ZM347.204 136.39C347.204 133.408 344.831 131 341.891 131C338.952 131 336.578 133.408 336.578 136.39C336.578 139.372 338.952 141.78 341.891 141.78C344.831 141.78 347.204 139.372 347.204 136.39ZM333.018 145.911V158.099C333.018 159.117 333.822 159.933 334.826 159.933H336.487V172.695C336.487 173.714 337.291 174.529 338.295 174.529H345.306C346.31 174.529 347.113 173.714 347.113 172.695V169.379C345.981 168.305 345.269 166.768 345.269 165.082V151.986C345.269 148.893 347.624 146.374 350.6 146.096V145.892C350.6 144.873 349.797 144.058 348.793 144.058H334.808C333.803 144.058 333 144.873 333 145.892L333.018 145.911Z" fill="white"/>
<path d="M169.03 364.043L178.835 355.429V388.419H169.03V364.043ZM156.67 388.419H166.474V366.302L156.67 374.916V388.419ZM144.328 388.419H154.132V374.99L144.328 364.469V388.438V388.419ZM131.968 388.419H141.772V363.117L131.968 371.156V388.4V388.419ZM184.64 343.038L175.238 343C174.416 343 173.978 343.982 174.508 344.612L177.374 347.928L155.447 367.136L143.963 354.8C143.306 354.096 142.229 354.022 141.48 354.633L128.682 365.136C127.897 365.784 127.769 366.951 128.408 367.747C129.047 368.544 130.197 368.673 130.982 368.025L142.466 358.597L153.986 370.989C154.351 371.378 154.826 371.563 155.319 371.563C155.739 371.563 156.177 371.415 156.524 371.1L179.802 350.706L182.742 354.096C183.289 354.726 184.312 354.411 184.403 353.577L185.571 344.112C185.645 343.538 185.206 343.019 184.622 343.019L184.64 343.038Z" fill="white"/>
<path d="M135.276 135.896H138.745V153.493H135.276V135.896ZM137.01 107C125.928 107.148 117 116.28 117 127.561C117 132.21 118.534 136.47 121.071 139.915C124.705 144.824 125.727 146.917 125.764 149.436C125.764 151.678 127.553 153.493 129.762 153.493H132.135V135.896H129.159C125.928 135.896 123.299 133.229 123.299 129.95C123.299 126.671 125.928 124.004 129.159 124.004C132.391 124.004 135.02 126.671 135.02 129.95C135.02 130.95 134.746 131.895 134.308 132.728H139.694C139.256 131.895 138.982 130.969 138.982 129.95C138.982 126.671 141.611 124.004 144.842 124.004C148.074 124.004 150.703 126.671 150.703 129.95C150.703 133.229 148.074 135.896 144.842 135.896H141.867V153.493H144.24C146.449 153.493 148.238 151.678 148.238 149.436C148.275 146.917 149.297 144.824 152.931 139.915C155.468 136.47 157.002 132.191 157.002 127.561C157.002 116.299 148.056 107.148 136.992 107H137.01ZM126.421 129.95C126.421 131.487 127.644 132.728 129.159 132.728C130.675 132.728 131.898 131.487 131.898 129.95C131.898 128.413 130.675 127.172 129.159 127.172C127.644 127.172 126.421 128.413 126.421 129.95ZM147.599 129.95C147.599 128.413 146.376 127.172 144.861 127.172C143.345 127.172 142.122 128.413 142.122 129.95C142.122 131.487 143.345 132.728 144.861 132.728C146.376 132.728 147.599 131.487 147.599 129.95ZM146.431 158.401C146.431 157.531 145.737 156.808 144.861 156.808H129.159C128.301 156.808 127.589 157.512 127.589 158.401C127.589 159.291 128.283 159.994 129.159 159.994H144.861C145.719 159.994 146.431 159.291 146.431 158.401ZM144.477 164.236C144.477 163.366 143.784 162.643 142.907 162.643H131.113C130.255 162.643 129.543 163.347 129.543 164.236C129.543 165.125 130.237 165.829 131.113 165.829H142.907C143.765 165.829 144.477 165.125 144.477 164.236Z" fill="white"/>
</svg>
