<svg width="2560" height="4253" viewBox="0 0 2560 4253" fill="none" xmlns="http://www.w3.org/2000/svg">
<g clip-path="url(#clip0_7_2)">
<rect width="2560" height="4253" fill="#0C1013"/>
<g clip-path="url(#clip1_7_2)">
<rect x="-513.22" y="1296.65" width="1879.16" height="1152" transform="rotate(-29.5929 -513.22 1296.65)" fill="url(#paint0_linear_7_2)"/>
</g>
<g opacity="0.7">
<path d="M747.548 601.305L747.548 -96.9999C942.21 -19.6593 1069.34 107.901 1069.34 252.152C1069.34 396.404 942.21 523.964 747.548 601.305Z" fill="url(#paint1_linear_7_2)"/>
<path d="M747.031 -11.3133H373.774V843.494H747.031V-11.3133Z" fill="url(#paint2_linear_7_2)"/>
<path d="M373.257 -12.1066H0V414.954H373.257V-12.1066Z" fill="url(#paint3_linear_7_2)"/>
<path d="M373.257 415.651H0V842.711H373.257V415.651Z" fill="url(#paint4_linear_7_2)"/>
<path d="M2560 -12.1066H2008.51V844.753H2560V-12.1066Z" fill="url(#paint5_linear_7_2)"/>
<path d="M2164.76 844.721H1649.94V408.357L1853.14 583.234L2164.76 844.721Z" fill="url(#paint6_linear_7_2)"/>
<path d="M2044.87 844.721H1531.46V408.357L1734.11 583.234L2044.87 844.721Z" fill="url(#paint7_linear_7_2)"/>
</g>
</g>
<defs>
<linearGradient id="paint0_linear_7_2" x1="-234.569" y1="2883.04" x2="443.273" y2="1176.83" gradientUnits="userSpaceOnUse">
<stop stop-color="#170A48" stop-opacity="0"/>
<stop offset="0.06" stop-color="#19053F" stop-opacity="0.3"/>
<stop offset="0.66" stop-color="#2C1569"/>
<stop offset="1" stop-color="#3E0BA0"/>
</linearGradient>
<linearGradient id="paint1_linear_7_2" x1="748.109" y1="-172.766" x2="748.239" y2="601.581" gradientUnits="userSpaceOnUse">
<stop stop-color="#1D0A48" stop-opacity="0"/>
<stop offset="0.06" stop-color="#17053F" stop-opacity="0.3"/>
<stop offset="0.66" stop-color="#301569"/>
<stop offset="1" stop-color="#470BA0"/>
</linearGradient>
<linearGradient id="paint2_linear_7_2" x1="598.555" y1="-11.3133" x2="597.217" y2="843.171" gradientUnits="userSpaceOnUse">
<stop stop-color="#1D0A48" stop-opacity="0"/>
<stop offset="0.06" stop-color="#17053F" stop-opacity="0.3"/>
<stop offset="0.66" stop-color="#301569"/>
<stop offset="1" stop-color="#470BA0"/>
</linearGradient>
<linearGradient id="paint3_linear_7_2" x1="320.882" y1="436.434" x2="315.808" y2="-12.3129" gradientUnits="userSpaceOnUse">
<stop stop-color="#1D0A48" stop-opacity="0"/>
<stop offset="0.06" stop-color="#17053F" stop-opacity="0.3"/>
<stop offset="0.66" stop-color="#301569"/>
<stop offset="1" stop-color="#470BA0"/>
</linearGradient>
<linearGradient id="paint4_linear_7_2" x1="320.882" y1="864.192" x2="315.808" y2="415.444" gradientUnits="userSpaceOnUse">
<stop stop-color="#1D0A48" stop-opacity="0"/>
<stop offset="0.06" stop-color="#17053F" stop-opacity="0.3"/>
<stop offset="0.66" stop-color="#301569"/>
<stop offset="1" stop-color="#470BA0"/>
</linearGradient>
<linearGradient id="paint5_linear_7_2" x1="2325.38" y1="989.607" x2="2343.29" y2="-12.0373" gradientUnits="userSpaceOnUse">
<stop stop-color="#170A48" stop-opacity="0"/>
<stop offset="0.177885" stop-color="#19053F" stop-opacity="0.3"/>
<stop offset="0.649038" stop-color="#2C1569"/>
<stop offset="1" stop-color="#3E0BA0"/>
</linearGradient>
<linearGradient id="paint6_linear_7_2" x1="1959.97" y1="408.357" x2="1924.68" y2="851.112" gradientUnits="userSpaceOnUse">
<stop stop-color="#170A48" stop-opacity="0"/>
<stop offset="0.06" stop-color="#19053F" stop-opacity="0.3"/>
<stop offset="0.66" stop-color="#2C1569"/>
<stop offset="1" stop-color="#3E0BA0"/>
</linearGradient>
<linearGradient id="paint7_linear_7_2" x1="1659.42" y1="319.53" x2="1720.69" y2="992.661" gradientUnits="userSpaceOnUse">
<stop stop-color="#170A48" stop-opacity="0"/>
<stop offset="0.06" stop-color="#19053F" stop-opacity="0.3"/>
<stop offset="0.66" stop-color="#2C1569"/>
<stop offset="1" stop-color="#3E0BA0"/>
</linearGradient>
<clipPath id="clip0_7_2">
<rect width="2560" height="4253" fill="white"/>
</clipPath>
<clipPath id="clip1_7_2">
<rect width="1440" height="1126" fill="white" transform="translate(0 938)"/>
</clipPath>
</defs>
</svg>
