<svg width="121" height="121" viewBox="0 0 121 121" fill="none" xmlns="http://www.w3.org/2000/svg">
<g filter="url(#filter0_d_92_158)">
<path d="M50.2583 86.7348C70.1772 86.7348 86.3246 70.5873 86.3246 50.6684C86.3246 30.7495 70.1772 14.6021 50.2583 14.6021C30.3394 14.6021 14.1919 30.7495 14.1919 50.6684C14.1919 70.5873 30.3394 86.7348 50.2583 86.7348Z" fill="white"/>
</g>
<path d="M50.3336 77.438C65.4807 77.438 77.7599 65.1588 77.7599 50.0117C77.7599 34.8645 65.4807 22.5853 50.3336 22.5853C35.1864 22.5853 22.9072 34.8645 22.9072 50.0117C22.9072 65.1588 35.1864 77.438 50.3336 77.438Z" fill="url(#paint0_linear_92_158)"/>
<path d="M49.9754 60.1914C51.4736 60.1914 52.7471 59.667 53.7959 58.6183C54.8447 57.5695 55.3691 56.296 55.3691 54.7977C55.3691 53.2994 54.8447 52.0259 53.7959 50.9771C52.7471 49.9283 51.4736 49.4039 49.9754 49.4039C48.4771 49.4039 47.2036 49.9283 46.1548 50.9771C45.106 52.0259 44.5816 53.2994 44.5816 54.7977C44.5816 56.296 45.106 57.5695 46.1548 58.6183C47.2036 59.667 48.4771 60.1914 49.9754 60.1914ZM46.4694 47.8458C46.869 47.626 47.2935 47.4512 47.7429 47.3214C48.1924 47.1915 48.6469 47.1066 49.1064 47.0667L46.0799 41.0137H43.0834L46.4694 47.8458ZM53.4813 47.8458L56.8973 41.0137H53.8708L51.3238 46.1078L51.8931 47.2464C52.1728 47.3264 52.4425 47.4113 52.7022 47.5012C52.9619 47.591 53.2216 47.7059 53.4813 47.8458ZM43.2631 58.7531C42.9235 58.1738 42.6588 57.5495 42.4691 56.8803C42.2793 56.2111 42.1844 55.5169 42.1844 54.7977C42.1844 54.0785 42.2793 53.3843 42.4691 52.7151C42.6588 52.0459 42.9235 51.4216 43.2631 50.8423C42.4241 51.122 41.7349 51.6164 41.1955 52.3256C40.6562 53.0347 40.3865 53.8588 40.3865 54.7977C40.3865 55.7366 40.6562 56.5606 41.1955 57.2698C41.7349 57.979 42.4241 58.4734 43.2631 58.7531ZM56.6876 58.7531C57.5266 58.4734 58.2158 57.979 58.7552 57.2698C59.2946 56.5606 59.5642 55.7366 59.5642 54.7977C59.5642 53.8588 59.2946 53.0347 58.7552 52.3256C58.2158 51.6164 57.5266 51.122 56.6876 50.8423C57.0272 51.4216 57.2919 52.0459 57.4817 52.7151C57.6714 53.3843 57.7663 54.0785 57.7663 54.7977C57.7663 55.5169 57.6714 56.2111 57.4817 56.8803C57.2919 57.5495 57.0272 58.1738 56.6876 58.7531ZM49.9754 62.5887C49.1763 62.5887 48.4122 62.4738 47.683 62.2441C46.9539 62.0143 46.2796 61.6997 45.6604 61.3002C45.4806 61.3401 45.3008 61.3651 45.121 61.3751C44.9412 61.3851 44.7514 61.39 44.5516 61.39C42.7338 61.39 41.1856 60.7508 39.907 59.4723C38.6285 58.1938 37.9893 56.6456 37.9893 54.8277C37.9893 53.0897 38.5686 51.6014 39.7272 50.3628C40.8859 49.1243 42.3142 48.4351 44.0123 48.2952L39.1879 38.6165H47.5781L49.9754 43.4109L52.3726 38.6165H60.7629L55.9684 48.2353C57.6664 48.3951 59.0898 49.0943 60.2385 50.3329C61.3871 51.5714 61.9615 53.0597 61.9615 54.7977C61.9615 56.6356 61.3222 58.1938 60.0437 59.4723C58.7652 60.7508 57.207 61.39 55.3691 61.39C55.1893 61.39 55.0045 61.3851 54.8147 61.3751C54.625 61.3651 54.4402 61.3401 54.2604 61.3002C53.6411 61.6997 52.9719 62.0143 52.2527 62.2441C51.5336 62.4738 50.7744 62.5887 49.9754 62.5887ZM47.7579 58.0939L48.597 55.367L46.3795 53.7789H49.1064L49.9754 50.9022L50.8444 53.7789H53.5712L51.3538 55.367L52.1928 58.0939L49.9754 56.4158L47.7579 58.0939Z" fill="white"/>
<defs>
<filter id="filter0_d_92_158" x="0.191895" y="0.602051" width="120.133" height="120.133" filterUnits="userSpaceOnUse" color-interpolation-filters="sRGB">
<feFlood flood-opacity="0" result="BackgroundImageFix"/>
<feColorMatrix in="SourceAlpha" type="matrix" values="0 0 0 0 0 0 0 0 0 0 0 0 0 0 0 0 0 0 127 0" result="hardAlpha"/>
<feOffset dx="10" dy="10"/>
<feGaussianBlur stdDeviation="12"/>
<feColorMatrix type="matrix" values="0 0 0 0 0 0 0 0 0 0 0 0 0 0 0 0 0 0 0.2 0"/>
<feBlend mode="normal" in2="BackgroundImageFix" result="effect1_dropShadow_92_158"/>
<feBlend mode="normal" in="SourceGraphic" in2="effect1_dropShadow_92_158" result="shape"/>
</filter>
<linearGradient id="paint0_linear_92_158" x1="50.8861" y1="24.3831" x2="50.5439" y2="76.4094" gradientUnits="userSpaceOnUse">
<stop stop-color="#7230D8"/>
<stop offset="0.21" stop-color="#6122C3"/>
<stop offset="0.54" stop-color="#4C11A8"/>
<stop offset="0.73" stop-color="#440B9E"/>
<stop offset="1" stop-color="#390A93"/>
</linearGradient>
</defs>
</svg>
