<svg width="33" height="30" viewBox="0 0 33 30" fill="none" xmlns="http://www.w3.org/2000/svg">
<path d="M4.01232 29.9623C3.59421 29.9684 3.17924 29.8895 2.79352 29.7305C2.4078 29.5715 2.05955 29.3359 1.77054 29.0384C1.46717 28.7472 1.22793 28.3977 1.06777 28.0116C0.907619 27.6254 0.829999 27.211 0.839672 26.794V9.47139C0.832612 9.05755 0.911592 8.64665 1.07167 8.26393C1.23175 7.8812 1.46953 7.53473 1.77054 7.24577C2.05955 6.94825 2.4078 6.71261 2.79352 6.55364C3.17924 6.39466 3.59421 6.31577 4.01232 6.32186H10.3613V3.17228C10.3526 2.75542 10.4306 2.34122 10.5907 1.95522C10.7508 1.56922 10.9896 1.2196 11.2922 0.927932C11.5809 0.629731 11.929 0.393415 12.3147 0.233789C12.7005 0.0741633 13.1155 -0.00532647 13.5339 0.000276914H19.883C20.3014 -0.00532647 20.7164 0.0741633 21.1022 0.233789C21.4879 0.393415 21.836 0.629731 22.1247 0.927932C22.4286 1.21888 22.6683 1.56829 22.8291 1.9544C22.9899 2.34051 23.0683 2.75506 23.0594 3.17228V6.35925H29.4084C29.8265 6.35317 30.2414 6.4321 30.6272 6.59108C31.0129 6.75005 31.3611 6.98564 31.6501 7.28317C31.9504 7.57266 32.1878 7.91927 32.3478 8.30187C32.5078 8.68447 32.5872 9.09511 32.581 9.50884V26.8314C32.5898 27.2483 32.5117 27.6625 32.3516 28.0485C32.1915 28.4345 31.9528 28.7841 31.6501 29.0758C31.3611 29.3733 31.0129 29.6089 30.6272 29.7679C30.2414 29.9269 29.8265 30.0058 29.4084 29.9997L4.01232 29.9623ZM13.5339 6.35925H19.883V3.20967H13.5339V6.35925ZM29.4084 20.5323H21.4712V23.6819H11.9495V20.5323H4.01232V26.8314H29.4084V20.5323ZM15.1222 20.5323H18.2985V17.3827H15.1222V20.5323ZM4.01232 17.3827H11.9495V14.2145H21.4712V17.364H29.4084V9.49011H4.01232V17.3827Z" fill="white"/>
</svg>
