<svg width="71" height="70" viewBox="0 0 71 70" fill="none" xmlns="http://www.w3.org/2000/svg">
<rect width="70.83" height="70" fill="url(#paint0_linear_0_1)"/>
<path d="M23.0123 49.9623C22.5942 49.9684 22.1792 49.8895 21.7935 49.7305C21.4078 49.5715 21.0595 49.3359 20.7705 49.0384C20.4672 48.7472 20.2279 48.3977 20.0678 48.0116C19.9076 47.6254 19.83 47.211 19.8397 46.794V29.4714C19.8326 29.0575 19.9116 28.6467 20.0717 28.2639C20.2317 27.8812 20.4695 27.5347 20.7705 27.2458C21.0595 26.9482 21.4078 26.7126 21.7935 26.5536C22.1792 26.3947 22.5942 26.3158 23.0123 26.3219H29.3613V23.1723C29.3526 22.7554 29.4306 22.3412 29.5907 21.9552C29.7508 21.5692 29.9896 21.2196 30.2922 20.9279C30.5809 20.6297 30.929 20.3934 31.3147 20.2338C31.7005 20.0742 32.1155 19.9947 32.5339 20.0003H38.883C39.3014 19.9947 39.7164 20.0742 40.1022 20.2338C40.4879 20.3934 40.836 20.6297 41.1247 20.9279C41.4286 21.2189 41.6683 21.5683 41.8291 21.9544C41.9899 22.3405 42.0683 22.7551 42.0594 23.1723V26.3593H48.4084C48.8265 26.3532 49.2414 26.4321 49.6272 26.5911C50.0129 26.7501 50.3611 26.9856 50.6501 27.2832C50.9504 27.5727 51.1878 27.9193 51.3478 28.3019C51.5078 28.6845 51.5872 29.0951 51.581 29.5088V46.8314C51.5898 47.2483 51.5117 47.6625 51.3516 48.0485C51.1915 48.4345 50.9528 48.7841 50.6501 49.0758C50.3611 49.3733 50.0129 49.6089 49.6272 49.7679C49.2414 49.9269 48.8265 50.0058 48.4084 49.9997L23.0123 49.9623ZM32.5339 26.3593H38.883V23.2097H32.5339V26.3593ZM48.4084 40.5323H40.4712V43.6819H30.9495V40.5323H23.0123V46.8314H48.4084V40.5323ZM34.1222 40.5323H37.2985V37.3827H34.1222V40.5323ZM23.0123 37.3827H30.9495V34.2145H40.4712V37.364H48.4084V29.4901H23.0123V37.3827Z" fill="white"/>
<defs>
<linearGradient id="paint0_linear_0_1" x1="36.1285" y1="2.29418" x2="35.6969" y2="68.6875" gradientUnits="userSpaceOnUse">
<stop stop-color="#7230D8"/>
<stop offset="0.21" stop-color="#6122C3"/>
<stop offset="0.54" stop-color="#4C11A8"/>
<stop offset="0.73" stop-color="#440B9E"/>
<stop offset="1" stop-color="#390A93"/>
</linearGradient>
</defs>
</svg>
