<svg width="1024" height="537" viewBox="0 0 1024 537" fill="none" xmlns="http://www.w3.org/2000/svg">
<path d="M271 403.918L271 -50.0822C342.383 0.200527 389 83.1336 389 176.918C389 270.702 342.383 353.635 271 403.918Z" fill="url(#paint0_linear_415_5259)"/>
<path d="M271 -118H134V536H271V-118Z" fill="url(#paint1_linear_415_5259)"/>
<path d="M134 -66.7911H-2V235.209H134V-66.7911Z" fill="url(#paint2_linear_415_5259)"/>
<path d="M134 234.209H-2V536.209H134V234.209Z" fill="url(#paint3_linear_415_5259)"/>
<path d="M1027 -25H826V537H1027V-25Z" fill="url(#paint4_linear_415_5259)"/>
<path d="M893 536.582H694V234.582L772.548 355.611L893 536.582Z" fill="url(#paint5_linear_415_5259)"/>
<path d="M847 536.582H648V234.582L726.548 355.611L847 536.582Z" fill="url(#paint6_linear_415_5259)"/>
<defs>
<linearGradient id="paint0_linear_415_5259" x1="271.205" y1="-99.3413" x2="271.356" y2="404.097" gradientUnits="userSpaceOnUse">
<stop stop-color="#1D0A48" stop-opacity="0"/>
<stop offset="0.06" stop-color="#17053F" stop-opacity="0.3"/>
<stop offset="0.66" stop-color="#301569"/>
<stop offset="1" stop-color="#470BA0"/>
</linearGradient>
<linearGradient id="paint1_linear_415_5259" x1="216.504" y1="-118" x2="214.368" y2="535.747" gradientUnits="userSpaceOnUse">
<stop stop-color="#1D0A48" stop-opacity="0"/>
<stop offset="0.06" stop-color="#17053F" stop-opacity="0.3"/>
<stop offset="0.66" stop-color="#301569"/>
<stop offset="1" stop-color="#470BA0"/>
</linearGradient>
<linearGradient id="paint2_linear_415_5259" x1="114.916" y1="250.399" x2="107.955" y2="-66.8248" gradientUnits="userSpaceOnUse">
<stop stop-color="#1D0A48" stop-opacity="0"/>
<stop offset="0.06" stop-color="#17053F" stop-opacity="0.3"/>
<stop offset="0.66" stop-color="#301569"/>
<stop offset="1" stop-color="#470BA0"/>
</linearGradient>
<linearGradient id="paint3_linear_415_5259" x1="114.916" y1="551.399" x2="107.955" y2="234.175" gradientUnits="userSpaceOnUse">
<stop stop-color="#1D0A48" stop-opacity="0"/>
<stop offset="0.06" stop-color="#17053F" stop-opacity="0.3"/>
<stop offset="0.66" stop-color="#301569"/>
<stop offset="1" stop-color="#470BA0"/>
</linearGradient>
<linearGradient id="paint4_linear_415_5259" x1="941.49" y1="632.008" x2="962.612" y2="-24.485" gradientUnits="userSpaceOnUse">
<stop stop-color="#170A48" stop-opacity="0"/>
<stop offset="0.177885" stop-color="#19053F" stop-opacity="0.3"/>
<stop offset="0.649038" stop-color="#2C1569"/>
<stop offset="1" stop-color="#3E0BA0"/>
</linearGradient>
<linearGradient id="paint5_linear_415_5259" x1="813.841" y1="234.582" x2="770.712" y2="536.797" gradientUnits="userSpaceOnUse">
<stop stop-color="#170A48" stop-opacity="0"/>
<stop offset="0.06" stop-color="#19053F" stop-opacity="0.3"/>
<stop offset="0.66" stop-color="#2C1569"/>
<stop offset="1" stop-color="#3E0BA0"/>
</linearGradient>
<linearGradient id="paint6_linear_415_5259" x1="697.597" y1="173.106" x2="771.974" y2="630.741" gradientUnits="userSpaceOnUse">
<stop stop-color="#170A48" stop-opacity="0"/>
<stop offset="0.06" stop-color="#19053F" stop-opacity="0.3"/>
<stop offset="0.66" stop-color="#2C1569"/>
<stop offset="1" stop-color="#3E0BA0"/>
</linearGradient>
</defs>
</svg>
