<svg width="32" height="30" viewBox="0 0 32 30" fill="none" xmlns="http://www.w3.org/2000/svg">
<path d="M12.0149 30L11.3927 25.1998C11.0688 25.0772 10.7566 24.9268 10.4595 24.7503C10.1671 24.576 9.88094 24.3895 9.60097 24.1877L5.05922 26.062L0.862793 18.938L4.7917 16.012C4.76733 15.8449 4.75486 15.6763 4.75437 15.5075V14.4955C4.75485 14.3257 4.76732 14.1561 4.7917 13.988L0.862793 11.062L5.05922 3.93804L9.60097 5.81227C9.88094 5.61354 10.1733 5.42702 10.4751 5.24969C10.7761 5.08045 11.0878 4.93034 11.4083 4.80025L12.0305 0H20.4295L21.0517 4.80025C21.3756 4.92284 21.6879 5.07323 21.9849 5.24969C22.2773 5.42702 22.5635 5.61354 22.8435 5.81227L27.3821 3.93804L31.5816 11.062L27.6496 13.988C27.6765 14.1559 27.69 14.3256 27.6901 14.4955V15.5075C27.6877 15.6784 27.6615 15.8481 27.6123 16.012L31.5443 18.938L27.3448 26.062L22.8435 24.1877C22.5614 24.3904 22.2686 24.5782 21.9663 24.7503C21.6717 24.9195 21.3662 25.0697 21.0517 25.1998L20.4295 30H12.0149ZM14.684 27.0006H17.6983L18.2334 23.0259C18.9963 22.8303 19.7288 22.5341 20.4109 22.1453C21.0917 21.7569 21.7189 21.2842 22.2774 20.7389L26.0538 22.2676L27.5408 19.7177L24.2589 17.2717C24.3888 16.9145 24.4785 16.5444 24.5264 16.168C24.6301 15.3834 24.6301 14.589 24.5264 13.8045C24.4785 13.4271 24.3888 13.056 24.2589 12.6977L27.5408 10.2517L26.0538 7.70179L22.2774 9.27639C21.1808 8.14056 19.7783 7.33465 18.2334 6.95271L17.7356 2.97798H14.7213L14.1862 6.95271C13.417 7.1443 12.6788 7.4407 11.9931 7.83326C11.3173 8.22204 10.6952 8.69473 10.1422 9.2397L6.36576 7.71096L4.87881 10.2762L8.16068 12.6763C8.03531 13.0423 7.94471 13.419 7.89005 13.8015C7.83876 14.199 7.81378 14.5993 7.81535 15C7.81454 15.3885 7.83952 15.7766 7.89005 16.1618C7.94436 16.5444 8.03496 16.9211 8.16068 17.287L4.87881 19.733L6.36576 22.2829L10.1422 20.7052C10.6867 21.2707 11.3099 21.7576 11.9931 22.1515C12.6801 22.5415 13.4179 22.8377 14.1862 23.032L14.684 27.0006ZM16.286 20.2497C17.5118 20.2396 18.6962 19.8127 19.6381 19.0416C20.5799 18.2705 21.2212 17.2028 21.4529 16.0197C21.6846 14.8366 21.4924 13.6111 20.909 12.5515C20.3257 11.4918 19.387 10.6634 18.2526 10.2068C17.1183 9.75021 15.8581 9.69369 14.6861 10.0468C13.5141 10.4 12.5026 11.141 11.8235 12.144C11.1443 13.147 10.8394 14.3501 10.9605 15.5491C11.0816 16.748 11.6212 17.8687 12.4877 18.7209C12.9803 19.2181 13.5717 19.6104 14.2252 19.8734C14.8786 20.1364 15.5801 20.2645 16.286 20.2497Z" fill="white"/>
</svg>
