<svg width="71" height="70" viewBox="0 0 71 70" fill="none" xmlns="http://www.w3.org/2000/svg">
<path d="M0 0H70.83V70H0V0Z" fill="url(#paint0_linear_0_1)"/>
<path d="M32.0149 50L31.3927 45.1998C31.0688 45.0772 30.7566 44.9268 30.4595 44.7503C30.1671 44.576 29.8809 44.3895 29.601 44.1877L25.0592 46.062L20.8628 38.938L24.7917 36.012C24.7673 35.8449 24.7549 35.6763 24.7544 35.5075V34.4955C24.7548 34.3257 24.7673 34.1561 24.7917 33.988L20.8628 31.062L25.0592 23.938L29.601 25.8123C29.8809 25.6135 30.1733 25.427 30.4751 25.2497C30.7761 25.0805 31.0878 24.9303 31.4083 24.8002L32.0305 20H40.4295L41.0517 24.8002C41.3756 24.9228 41.6879 25.0732 41.9849 25.2497C42.2773 25.427 42.5635 25.6135 42.8435 25.8123L47.3821 23.938L51.5816 31.062L47.6496 33.988C47.6765 34.1559 47.69 34.3256 47.6901 34.4955V35.5075C47.6877 35.6784 47.6615 35.8481 47.6123 36.012L51.5443 38.938L47.3448 46.062L42.8435 44.1877C42.5614 44.3904 42.2686 44.5782 41.9663 44.7503C41.6717 44.9195 41.3662 45.0697 41.0517 45.1998L40.4295 50H32.0149ZM34.684 47.0006H37.6983L38.2334 43.0259C38.9963 42.8303 39.7288 42.5341 40.4109 42.1453C41.0917 41.7569 41.7189 41.2842 42.2774 40.7389L46.0538 42.2676L47.5408 39.7177L44.2589 37.2717C44.3888 36.9145 44.4785 36.5444 44.5264 36.168C44.6301 35.3834 44.6301 34.589 44.5264 33.8045C44.4785 33.4271 44.3888 33.056 44.2589 32.6977L47.5408 30.2517L46.0538 27.7018L42.2774 29.2764C41.1808 28.1406 39.7783 27.3347 38.2334 26.9527L37.7356 22.978H34.7213L34.1862 26.9527C33.417 27.1443 32.6788 27.4407 31.9931 27.8333C31.3173 28.222 30.6952 28.6947 30.1422 29.2397L26.3658 27.711L24.8788 30.2762L28.1607 32.6763C28.0353 33.0423 27.9447 33.419 27.89 33.8015C27.8388 34.199 27.8138 34.5993 27.8154 35C27.8145 35.3885 27.8395 35.7766 27.89 36.1618C27.9444 36.5444 28.035 36.9211 28.1607 37.287L24.8788 39.733L26.3658 42.2829L30.1422 40.7052C30.6867 41.2707 31.3099 41.7576 31.9931 42.1515C32.6801 42.5415 33.4179 42.8377 34.1862 43.032L34.684 47.0006ZM36.286 40.2497C37.5118 40.2396 38.6962 39.8127 39.6381 39.0416C40.5799 38.2705 41.2212 37.2028 41.4529 36.0197C41.6846 34.8366 41.4924 33.6111 40.909 32.5515C40.3257 31.4918 39.387 30.6634 38.2526 30.2068C37.1183 29.7502 35.8581 29.6937 34.6861 30.0468C33.5141 30.4 32.5026 31.141 31.8235 32.144C31.1443 33.147 30.8394 34.3501 30.9605 35.5491C31.0816 36.748 31.6212 37.8687 32.4877 38.7209C32.9803 39.2181 33.5717 39.6104 34.2252 39.8734C34.8786 40.1364 35.5801 40.2645 36.286 40.2497Z" fill="white"/>
<defs>
<linearGradient id="paint0_linear_0_1" x1="36.1285" y1="2.29418" x2="35.6969" y2="68.6875" gradientUnits="userSpaceOnUse">
<stop stop-color="#7230D8"/>
<stop offset="0.21" stop-color="#6122C3"/>
<stop offset="0.54" stop-color="#4C11A8"/>
<stop offset="0.73" stop-color="#440B9E"/>
<stop offset="1" stop-color="#390A93"/>
</linearGradient>
</defs>
</svg>
