<svg width="44" height="44" viewBox="0 0 44 44" fill="none" xmlns="http://www.w3.org/2000/svg">
<path d="M30.2751 30.0531V23.8288C30.2751 20.7698 29.6165 18.4331 26.0477 18.4331C24.327 18.4331 23.1798 19.3678 22.7125 20.26H22.67V18.7092H19.2923V30.0531H22.8187V24.4236C22.8187 22.9366 23.0949 21.5133 24.9218 21.5133C26.7274 21.5133 26.7487 23.1915 26.7487 24.5086V30.0318H30.2751V30.0531Z" fill="white"/>
<path d="M13.5567 18.7091H17.0831V30.053H13.5567V18.7091Z" fill="white"/>
<path d="M15.3199 13.0583C14.194 13.0583 13.2805 13.9718 13.2805 15.0977C13.2805 16.2236 14.194 17.1583 15.3199 17.1583C16.4458 17.1583 17.3592 16.2236 17.3592 15.0977C17.3592 13.9718 16.4458 13.0583 15.3199 13.0583Z" fill="white"/>
<circle cx="21.7778" cy="21.5556" r="20.8056" stroke="white" stroke-width="1.5"/>
</svg>
