<svg width="32" height="30" viewBox="0 0 32 30" fill="none" xmlns="http://www.w3.org/2000/svg">
<path d="M7.69829 23.3389H11.1135V11.6894H7.69829V23.3389ZM14.5248 23.3389H17.94V6.69671H14.5248V23.3389ZM21.3512 23.3389H24.7624V16.682H21.3512V23.3389ZM4.27887 29.9997C3.82901 30.0056 3.38276 29.9216 2.96801 29.7529C2.55326 29.5842 2.17898 29.3345 1.8686 29.0194C1.5449 28.7147 1.28877 28.3492 1.11597 27.9455C0.943176 27.5418 0.857271 27.1082 0.863534 26.6713V3.34853C0.853906 2.90762 0.938189 2.46953 1.11108 2.06149C1.28398 1.65345 1.54187 1.28419 1.8686 0.976726C2.17934 0.662305 2.55377 0.413289 2.96851 0.245285C3.38324 0.0772814 3.82931 -0.00608444 4.27887 0.000345562H28.1695C28.6191 -0.00608444 29.0652 0.0772814 29.4799 0.245285C29.8946 0.413289 30.2691 0.662305 30.5798 0.976726C30.906 1.28439 31.1632 1.65377 31.3354 2.06182C31.5076 2.46988 31.5912 2.90788 31.5808 3.34853V26.6713C31.5878 27.1079 31.5026 27.5414 31.3305 27.9452C31.1584 28.3489 30.903 28.7145 30.5798 29.0194C30.2694 29.3345 29.8951 29.5842 29.4804 29.7529C29.0656 29.9216 28.6194 30.0056 28.1695 29.9997H4.27887ZM4.27887 26.6713H28.1695V3.34853H4.27887V26.6713Z" fill="white"/>
</svg>
