<svg width="71" height="70" viewBox="0 0 71 70" fill="none" xmlns="http://www.w3.org/2000/svg">
<path d="M0 0H70.83V70H0V0Z" fill="url(#paint0_linear_0_1)"/>
<path d="M27.6983 43.3389H31.1135V31.6894H27.6983V43.3389ZM34.5248 43.3389H37.94V26.6967H34.5248V43.3389ZM41.3512 43.3389H44.7624V36.682H41.3512V43.3389ZM24.2789 49.9997C23.829 50.0056 23.3828 49.9216 22.968 49.7529C22.5533 49.5842 22.179 49.3345 21.8686 49.0194C21.5449 48.7147 21.2888 48.3492 21.116 47.9455C20.9432 47.5418 20.8573 47.1082 20.8635 46.6713V23.3485C20.8539 22.9076 20.9382 22.4695 21.1111 22.0615C21.284 21.6534 21.5419 21.2842 21.8686 20.9767C22.1793 20.6623 22.5538 20.4133 22.9685 20.2453C23.3832 20.0773 23.8293 19.9939 24.2789 20.0003H48.1695C48.6191 19.9939 49.0652 20.0773 49.4799 20.2453C49.8946 20.4133 50.2691 20.6623 50.5798 20.9767C50.906 21.2844 51.1632 21.6538 51.3354 22.0618C51.5076 22.4699 51.5912 22.9079 51.5808 23.3485V46.6713C51.5878 47.1079 51.5026 47.5414 51.3305 47.9452C51.1584 48.3489 50.903 48.7145 50.5798 49.0194C50.2694 49.3345 49.8951 49.5842 49.4804 49.7529C49.0656 49.9216 48.6194 50.0056 48.1695 49.9997H24.2789ZM24.2789 46.6713H48.1695V23.3485H24.2789V46.6713Z" fill="white"/>
<defs>
<linearGradient id="paint0_linear_0_1" x1="36.1285" y1="2.29418" x2="35.6969" y2="68.6875" gradientUnits="userSpaceOnUse">
<stop stop-color="#7230D8"/>
<stop offset="0.21" stop-color="#6122C3"/>
<stop offset="0.54" stop-color="#4C11A8"/>
<stop offset="0.73" stop-color="#440B9E"/>
<stop offset="1" stop-color="#390A93"/>
</linearGradient>
</defs>
</svg>
