<svg width="146" height="32" viewBox="0 0 146 32" fill="none" xmlns="http://www.w3.org/2000/svg">
<g clip-path="url(#clip0_28_2)">
<path d="M40.2109 18.3443L37.5956 23.2402L34.9803 18.3443V24.5424H32.5088V13.5586H34.9009L37.5964 18.6115L40.2919 13.5586H42.684V24.5424H40.2117L40.2109 18.3443Z" fill="#390A93"/>
<path d="M46.0312 13.5586H53.8136V15.6772H48.5027V17.9842H53.0157V20.1028H48.5027V22.4253H53.8136V24.544H46.0312V13.5602V13.5586Z" fill="#390A93"/>
<path d="M63.6679 20.7926L65.4224 24.5432H62.7112L61.1162 20.8871H59.3145V24.5432H56.843V13.5593H62.9187C64.4178 13.5593 65.4224 14.5476 65.4224 16.0225V18.4232C65.4224 19.6317 64.737 20.5254 63.6679 20.7926ZM62.9502 16.1475C62.9502 15.8334 62.7906 15.6764 62.4714 15.6764H59.3137V18.7677H62.4714C62.7906 18.7677 62.9502 18.6106 62.9502 18.2966V16.1467V16.1475Z" fill="#390A93"/>
<path d="M68.4521 13.5586H70.9236V22.4246H76.2345V24.5432H68.4521V13.5594V13.5586Z" fill="#390A93"/>
<path d="M78.9448 13.5586H81.4163V24.5424H78.9448V13.5586Z" fill="#390A93"/>
<path d="M87.2364 18.031V24.5432H84.7649V13.5593H87.0776L91.192 20.0715V13.5593H93.6642V24.5432H91.3515L87.2371 18.031H87.2364Z" fill="#390A93"/>
<path d="M103.231 13.5586H105.703V22.4246H111.014V24.5432H103.231V13.5594V13.5586Z" fill="#390A93"/>
<path d="M123.101 24.5424H120.501L119.784 22.2199H116.004L115.287 24.5424H112.767L116.419 13.5586H119.45L123.102 24.5424H123.101ZM116.658 20.102H119.114L117.886 16.1475L116.658 20.102Z" fill="#390A93"/>
<path d="M134.231 16.9326C134.231 17.8896 133.801 18.6427 133.099 19.0512C133.801 19.459 134.231 20.2121 134.231 21.1699V22.08C134.231 23.5549 133.227 24.5432 131.728 24.5432H125.492V13.5593H131.728C133.227 13.5593 134.231 14.5476 134.231 16.0225V16.9326ZM131.76 16.1475C131.76 15.8334 131.6 15.6764 131.281 15.6764H127.964V17.9833H131.281C131.6 17.9833 131.76 17.8263 131.76 17.5123V16.1475ZM131.76 20.573C131.76 20.259 131.6 20.102 131.281 20.102H127.964V22.4245H131.281C131.6 22.4245 131.76 22.2675 131.76 21.9534V20.5723V20.573Z" fill="#390A93"/>
<path d="M146 20.4473V22.0793C146 23.5542 144.995 24.5424 143.512 24.5424H139.765C138.266 24.5424 137.261 23.5542 137.261 22.0793V21.0903H139.732V21.9535C139.732 22.2675 139.892 22.4246 140.211 22.4246H143.05C143.369 22.4246 143.528 22.2675 143.528 21.9535V20.5723C143.528 20.2583 143.369 20.1012 143.05 20.1012H139.749C138.266 20.1012 137.261 19.113 137.261 17.6381V16.0218C137.261 14.5468 138.266 13.5586 139.749 13.5586H143.497C144.996 13.5586 146.001 14.5468 146.001 16.0218V17.01H143.529V16.1467C143.529 15.8327 143.37 15.6757 143.051 15.6757H140.212C139.893 15.6757 139.733 15.8327 139.733 16.1467V17.5115C139.733 17.8256 139.893 17.9826 140.212 17.9826H143.513C144.996 17.9826 146.001 18.9708 146.001 20.4458L146 20.4473Z" fill="#390A93"/>
<path d="M29.3747 21.7036V24.6277C23.6134 25.3191 18.4747 28.0181 14.6873 32C10.8999 28.0181 5.76126 25.3191 0 24.6277V21.7036C5.57339 22.2989 10.6429 24.5699 14.6873 27.9986C18.7318 24.5699 23.8005 22.2989 29.3747 21.7036Z" fill="#390A93"/>
<path fill-rule="evenodd" clip-rule="evenodd" d="M14.6929 18.4464H14.6907H14.6886L14.6802 18.4471H14.6809L14.6823 18.4457L14.6865 18.4429L14.6872 18.4436L14.6915 18.4464H14.6922H14.6929Z" fill="#564294"/>
<path fill-rule="evenodd" clip-rule="evenodd" d="M14.691 26.676V26.6846L14.6833 26.6799L14.691 26.676Z" fill="#564294"/>
<path fill-rule="evenodd" clip-rule="evenodd" d="M22.8038 12.1627L21.2985 11.1846L19.2759 9.87061V6.39344L17.3374 8.61052V13.7946C17.879 14.1462 18.338 14.4438 18.7327 14.6993L14.6882 17.771H14.689L14.6977 17.778L14.7 17.7804H14.6906L14.6882 17.7796H14.6764L14.6788 17.7788L14.6835 17.7757L14.6882 17.7718L12.7088 16.2687V14.8883C13.4721 14.393 14.5004 13.7259 16.0631 12.7119V5.9958L16.0576 5.99971L13.425 4.28963V0L11.3049 2.91158V8.09335C11.5816 8.27303 11.819 8.42693 12.0698 8.59021L8.07641 11.1846L6.81159 12.0064L6.74949 12.0463L6.57104 12.1627L6.58755 12.5158L6.57262 12.5064V20.4732L11.7388 23.8301L14.6756 25.7386L14.6835 25.7433L14.6914 25.7386L18.8128 23.0637L22.8038 20.4732V12.5064L22.7873 12.5174L22.8038 12.1635V12.1627ZM14.6898 19.3631H14.6796H14.6756H14.6741L14.6772 19.3616L14.6819 19.3584H14.6835L14.6874 19.3553H14.6882L14.6969 19.3616H14.6953L14.6977 19.3631H14.6882H14.6898Z" fill="url(#paint0_linear_28_2)"/>
<path fill-rule="evenodd" clip-rule="evenodd" d="M14.6988 18.4475L14.6895 18.4467L14.6802 18.4475H14.6763H14.6771H14.6755L14.6779 18.4459L14.6833 18.4436L14.6848 18.442L14.6887 18.4397L14.6895 18.4405L14.6972 18.4459H14.6965L14.6988 18.4475Z" fill="#440B9E"/>
<path fill-rule="evenodd" clip-rule="evenodd" d="M14.6833 26.676L14.691 26.6799L14.6833 26.6846V26.676Z" fill="#564294"/>
<path fill-rule="evenodd" clip-rule="evenodd" d="M14.6988 18.4474L14.6895 18.4466H14.6887H14.6872L14.681 18.4474H14.6771H14.6755L14.6779 18.4459L14.6833 18.4435L14.6848 18.442L14.6879 18.4404L14.6965 18.4459L14.6988 18.4474Z" fill="#564294"/>
<path fill-rule="evenodd" clip-rule="evenodd" d="M14.6965 18.4457H14.6958L14.692 18.4465H14.6898H14.6883H14.6875L14.68 18.4472H14.6763L14.6793 18.4457L14.6838 18.4427L14.6845 18.442L14.6883 18.4397L14.689 18.4405L14.6965 18.4457Z" fill="#564294"/>
</g>
<defs>
<linearGradient id="paint0_linear_28_2" x1="14.8509" y1="0.843709" x2="14.5963" y2="25.259" gradientUnits="userSpaceOnUse">
<stop stop-color="#7230D8"/>
<stop offset="0.21" stop-color="#6122C3"/>
<stop offset="0.54" stop-color="#4C11A8"/>
<stop offset="0.73" stop-color="#440B9E"/>
<stop offset="1" stop-color="#390A93"/>
</linearGradient>
<clipPath id="clip0_28_2">
<rect width="146" height="32" fill="white"/>
</clipPath>
</defs>
</svg>
