<svg width="71" height="70" viewBox="0 0 71 70" fill="none" xmlns="http://www.w3.org/2000/svg">
<path d="M0 0H70.83V70H0V0Z" fill="url(#paint0_linear_0_1)"/>
<path d="M33.1503 38H39.2941V35H33.1503V38ZM33.1503 33.5H45.4379V30.5H33.1503V33.5ZM33.1503 29H45.4379V26H33.1503V29ZM30.0784 44C29.2337 44 28.5105 43.7063 27.9089 43.1188C27.3074 42.5312 27.0066 41.825 27.0066 41V23C27.0066 22.175 27.3074 21.4688 27.9089 20.8813C28.5105 20.2938 29.2337 20 30.0784 20H48.5098C49.3545 20 50.0777 20.2938 50.6793 20.8813C51.2809 21.4688 51.5816 22.175 51.5816 23V41C51.5816 41.825 51.2809 42.5312 50.6793 43.1188C50.0777 43.7063 49.3545 44 48.5098 44H30.0784ZM30.0784 41H48.5098V23H30.0784V41ZM23.9347 50C23.0899 50 22.3667 49.7063 21.7652 49.1188C21.1636 48.5312 20.8628 47.825 20.8628 47V26H23.9347V47H45.4379V50H23.9347Z" fill="#FAFBFC"/>
<defs>
<linearGradient id="paint0_linear_0_1" x1="36.1285" y1="2.29418" x2="35.6969" y2="68.6875" gradientUnits="userSpaceOnUse">
<stop stop-color="#7230D8"/>
<stop offset="0.21" stop-color="#6122C3"/>
<stop offset="0.54" stop-color="#4C11A8"/>
<stop offset="0.73" stop-color="#440B9E"/>
<stop offset="1" stop-color="#390A93"/>
</linearGradient>
</defs>
</svg>
