<svg width="32" height="30" viewBox="0 0 32 30" fill="none" xmlns="http://www.w3.org/2000/svg">
<path d="M13.1503 18H19.2941V15H13.1503V18ZM13.1503 13.5H25.4379V10.5H13.1503V13.5ZM13.1503 9H25.4379V6H13.1503V9ZM10.0784 24C9.23368 24 8.51051 23.7063 7.90893 23.1188C7.30735 22.5312 7.00656 21.825 7.00656 21V3C7.00656 2.175 7.30735 1.46875 7.90893 0.88125C8.51051 0.29375 9.23368 0 10.0784 0H28.5098C29.3545 0 30.0777 0.29375 30.6793 0.88125C31.2809 1.46875 31.5816 2.175 31.5816 3V21C31.5816 21.825 31.2809 22.5312 30.6793 23.1188C30.0777 23.7063 29.3545 24 28.5098 24H10.0784ZM10.0784 21H28.5098V3H10.0784V21ZM3.93468 30C3.08991 30 2.36674 29.7063 1.76516 29.1188C1.16358 28.5312 0.862793 27.825 0.862793 27V6H3.93468V27H25.4379V30H3.93468Z" fill="#FAFBFC"/>
</svg>
