<svg width="121" height="121" viewBox="0 0 121 121" fill="none" xmlns="http://www.w3.org/2000/svg">
<g filter="url(#filter0_d_92_125)">
<path d="M50.497 86.1327C70.4159 86.1327 86.5634 69.9853 86.5634 50.0664C86.5634 30.1475 70.4159 14 50.497 14C30.5781 14 14.4307 30.1475 14.4307 50.0664C14.4307 69.9853 30.5781 86.1327 50.497 86.1327Z" fill="white"/>
</g>
<path d="M51.3609 78.1497C66.508 78.1497 78.7872 65.6624 78.7872 50.2585C78.7872 34.8547 66.508 22.3674 51.3609 22.3674C36.2138 22.3674 23.9346 34.8547 23.9346 50.2585C23.9346 65.6624 36.2138 78.1497 51.3609 78.1497Z" fill="url(#paint0_linear_92_125)"/>
<path d="M50.4967 50.3695C48.8298 50.3695 47.4028 49.776 46.2157 48.589C45.0286 47.4019 44.4351 45.9749 44.4351 44.308C44.4351 42.641 45.0286 41.214 46.2157 40.027C47.4028 38.8399 48.8298 38.2464 50.4967 38.2464C52.1636 38.2464 53.5906 38.8399 54.7777 40.027C55.9647 41.214 56.5583 42.641 56.5583 44.308C56.5583 45.9749 55.9647 47.4019 54.7777 48.589C53.5906 49.776 52.1636 50.3695 50.4967 50.3695ZM38.3735 62.4927V58.2496C38.3735 57.3909 38.5945 56.6016 39.0365 55.8818C39.4785 55.162 40.0657 54.6127 40.7982 54.2338C42.3641 53.4508 43.9552 52.8636 45.5717 52.4722C47.1881 52.0807 48.8298 51.8849 50.4967 51.8849C52.1636 51.8849 53.8053 52.0807 55.4217 52.4722C57.0381 52.8636 58.6293 53.4508 60.1952 54.2338C60.9276 54.6127 61.5149 55.162 61.9569 55.8818C62.3988 56.6016 62.6198 57.3909 62.6198 58.2496V62.4927H38.3735ZM41.4043 59.4619H59.589V58.2496C59.589 57.9718 59.5196 57.7192 59.3807 57.4919C59.2418 57.2646 59.0587 57.0878 58.8314 56.9615C57.4675 56.2796 56.091 55.7681 54.7019 55.4272C53.3128 55.0862 51.9111 54.9157 50.4967 54.9157C49.0823 54.9157 47.6806 55.0862 46.2915 55.4272C44.9024 55.7681 43.5259 56.2796 42.162 56.9615C41.9347 57.0878 41.7516 57.2646 41.6127 57.4919C41.4738 57.7192 41.4043 57.9718 41.4043 58.2496V59.4619ZM50.4967 47.3388C51.3302 47.3388 52.0436 47.042 52.6372 46.4485C53.2307 45.8549 53.5275 45.1414 53.5275 44.308C53.5275 43.4745 53.2307 42.761 52.6372 42.1675C52.0436 41.574 51.3302 41.2772 50.4967 41.2772C49.6632 41.2772 48.9497 41.574 48.3562 42.1675C47.7627 42.761 47.4659 43.4745 47.4659 44.308C47.4659 45.1414 47.7627 45.8549 48.3562 46.4485C48.9497 47.042 49.6632 47.3388 50.4967 47.3388Z" fill="white"/>
<defs>
<filter id="filter0_d_92_125" x="0.430664" y="0" width="120.133" height="120.133" filterUnits="userSpaceOnUse" color-interpolation-filters="sRGB">
<feFlood flood-opacity="0" result="BackgroundImageFix"/>
<feColorMatrix in="SourceAlpha" type="matrix" values="0 0 0 0 0 0 0 0 0 0 0 0 0 0 0 0 0 0 127 0" result="hardAlpha"/>
<feOffset dx="10" dy="10"/>
<feGaussianBlur stdDeviation="12"/>
<feColorMatrix type="matrix" values="0 0 0 0 0 0 0 0 0 0 0 0 0 0 0 0 0 0 0.2 0"/>
<feBlend mode="normal" in2="BackgroundImageFix" result="effect1_dropShadow_92_125"/>
<feBlend mode="normal" in="SourceGraphic" in2="effect1_dropShadow_92_125" result="shape"/>
</filter>
<linearGradient id="paint0_linear_92_125" x1="51.9134" y1="24.1956" x2="51.5596" y2="77.1037" gradientUnits="userSpaceOnUse">
<stop stop-color="#7230D8"/>
<stop offset="0.21" stop-color="#6122C3"/>
<stop offset="0.54" stop-color="#4C11A8"/>
<stop offset="0.73" stop-color="#440B9E"/>
<stop offset="1" stop-color="#390A93"/>
</linearGradient>
</defs>
</svg>
