<svg width="44" height="44" viewBox="0 0 44 44" fill="none" xmlns="http://www.w3.org/2000/svg">
<path d="M29.9927 29.0562L24.0981 19.7925L29.9145 13.3942C30.0461 13.2459 30.1138 13.0517 30.1032 12.8538C30.0926 12.6559 30.0043 12.4701 29.8576 12.3368C29.7109 12.2035 29.5176 12.1333 29.3195 12.1416C29.1215 12.1499 28.9347 12.2359 28.7996 12.381L23.2591 18.4752L19.4465 12.4836C19.3785 12.3766 19.2846 12.2885 19.1735 12.2274C19.0624 12.1664 18.9377 12.1343 18.8109 12.1343H14.2911C14.156 12.1342 14.0234 12.1705 13.9072 12.2392C13.791 12.308 13.6953 12.4068 13.6304 12.5252C13.5654 12.6436 13.5334 12.7773 13.5379 12.9123C13.5423 13.0473 13.5829 13.1786 13.6555 13.2925L19.5501 22.5552L13.7337 28.9582C13.6657 29.0312 13.613 29.1169 13.5784 29.2104C13.5439 29.3039 13.5282 29.4034 13.5324 29.503C13.5366 29.6026 13.5604 29.7003 13.6027 29.7906C13.6449 29.8809 13.7046 29.962 13.7784 30.029C13.8522 30.096 13.9385 30.1478 14.0324 30.1812C14.1263 30.2146 14.226 30.2291 14.3255 30.2237C14.425 30.2184 14.5225 30.1933 14.6123 30.15C14.7021 30.1067 14.7824 30.046 14.8486 29.9714L20.3891 23.8772L24.2017 29.8688C24.2702 29.9749 24.3644 30.0621 24.4754 30.1223C24.5865 30.1826 24.7109 30.2139 24.8373 30.2134H29.3571C29.492 30.2134 29.6244 30.1771 29.7405 30.1084C29.8566 30.0397 29.9521 29.941 30.0171 29.8228C30.0821 29.7045 30.114 29.571 30.1097 29.4361C30.1054 29.3013 30.065 29.17 29.9927 29.0562ZM25.2507 28.7068L15.6631 13.6409H18.3938L27.9851 28.7068H25.2507Z" fill="#FAFBFC"/>
<circle cx="21.6667" cy="21.5556" r="20.8056" stroke="white" stroke-width="1.5"/>
</svg>
