<svg width="149" height="24" viewBox="0 0 149 24" fill="none" xmlns="http://www.w3.org/2000/svg">
<path d="M21.7114 23.3718L21.1543 11.6073H17.8416L17.2417 0H8.38237L2.63451 11.7256H5.90622L0 23.3718C2.37181 23.3736 4.74175 23.3755 7.11355 23.3773C7.39862 22.7985 7.68368 22.2197 7.96874 21.6409C10.2325 21.6668 12.4944 21.6909 14.7562 21.7167C14.7488 22.2826 14.7413 22.8484 14.7339 23.4143C17.061 23.4013 19.3862 23.3865 21.7114 23.3718ZM11.2814 14.9192L12.9378 11.598L14.2755 11.6332L14.3463 14.9192H11.2814Z" fill="white"/>
<path d="M114.091 23.3718L113.534 11.6073H110.222L109.622 0H100.762L95.0144 11.7256H98.2861L92.3799 23.3718C94.7517 23.3736 97.1216 23.3755 99.4934 23.3773C99.7785 22.7985 100.064 22.2197 100.349 21.6409C102.612 21.6668 104.874 21.6909 107.136 21.7167C107.129 22.2826 107.121 22.8484 107.114 23.4143C109.441 23.4013 111.766 23.3865 114.091 23.3718ZM103.661 14.9192L105.318 11.598L106.655 11.6332L106.726 14.9192H103.661Z" fill="white"/>
<path d="M22.5876 23.3698L25.0864 11.8387H21.7114L24.3843 0H31.0916L33.7219 11.4441L36.0466 0H42.7538L40.6051 11.5756H43.8486L41.1757 23.4143H34.3369L31.9696 12.0573L29.5579 23.3698H22.5876Z" fill="white"/>
<path d="M68.126 23.7555L70.6194 11.9059H67.2629L69.7158 0H76.3606L79.0067 11.7481L86.2292 0.0882893H93.0764L90.6879 11.8364L94.0829 11.8665L91.4644 23.7611C89.2029 23.748 86.9414 23.7348 84.6798 23.7217C85.4895 19.9478 86.301 16.1739 87.1107 12.4C84.713 16.1682 82.3153 19.9384 79.9157 23.7066C79.049 19.9158 78.1842 16.125 77.3175 12.3323L74.8517 23.84L68.126 23.7555Z" fill="white"/>
<path d="M116.456 0.0672813C115.669 4.04809 114.879 8.02703 114.092 12.0078H117.398L115.022 23.84H126.763L128.14 16.9493C126.482 16.953 124.825 16.9586 123.166 16.9624C123.494 15.2486 123.819 13.5366 124.146 11.8228C123.068 11.8284 121.992 11.8359 120.914 11.8415C121.704 7.89434 122.495 3.94717 123.285 0C121.009 0.0224271 118.732 0.0448542 116.456 0.0672813Z" fill="white"/>
<path d="M127.289 0.0976516H134.915L136.809 6.15574L141.132 0H149L140.743 11.6334H143.949L141.618 15.125L139.917 23.4143H132.973L134.915 15.125L133.944 11.7311H130.543L127.289 0.0976516Z" fill="white"/>
<path d="M68.9655 11.92C67.1846 17.7894 62.8699 22.1947 57.6015 23.1495C56.5549 23.3393 50.7753 24.3872 47.2878 20.4001C44.3376 17.0263 45.2169 12.559 45.3526 11.92H52.0524C52.0096 12.2012 51.7512 14.1217 53.0823 15.4709C54.549 16.9569 56.7556 16.5407 57.3803 16.4238C60.7655 15.7849 62.2118 12.2705 62.3493 11.92H68.9655Z" fill="white"/>
<path d="M48.7616 11.92H42.1455C43.9264 6.05123 48.2411 1.64647 53.5095 0.691775C54.5579 0.500105 60.3356 -0.54769 63.825 3.44087C66.7733 6.81426 65.894 11.2811 65.7583 11.92H59.0585C59.1013 11.637 59.3597 9.71851 58.0287 8.36952C56.5619 6.88362 54.3572 7.29799 53.7307 7.41665C50.3455 8.05372 48.8992 11.5677 48.7616 11.92Z" fill="white"/>
</svg>
