<svg width="171" height="39" viewBox="0 0 171 39" fill="none" xmlns="http://www.w3.org/2000/svg">
<path d="M0 19.1177C0 29.6761 8.55917 38.2353 19.1177 38.2353C29.6763 38.2353 38.2359 29.6761 38.2359 19.1177C38.2359 8.55916 29.6763 -3.05176e-05 19.1177 -3.05176e-05C8.55917 -3.05176e-05 0 8.55914 0 19.1177Z" fill="white"/>
<path fill-rule="evenodd" clip-rule="evenodd" d="M10.4664 14.4967L10.9505 13.0009C11.049 12.6966 11.2891 12.4599 11.5944 12.3665L13.0976 11.9043C13.3057 11.8407 13.3074 11.5471 13.101 11.4802L11.6046 10.996C11.3009 10.8976 11.0641 10.6575 10.9702 10.3521L10.5085 8.84895C10.445 8.64143 10.1514 8.63917 10.0845 8.84614L9.60032 10.342C9.5019 10.6457 9.26178 10.8824 8.95642 10.9764L7.45322 11.438C7.24516 11.5022 7.2429 11.7952 7.44985 11.8621L8.94629 12.3462C9.24997 12.4447 9.48673 12.6854 9.58063 12.9907L10.0423 14.4933C10.1059 14.7014 10.3994 14.7037 10.4664 14.4967Z" fill="black"/>
<path fill-rule="evenodd" clip-rule="evenodd" d="M34.2257 13.6261C33.6062 12.9332 32.6389 12.543 31.6986 12.383C30.7509 12.2293 29.757 12.2436 28.8215 12.4098C26.9283 12.73 25.2084 13.5139 23.7084 14.481C22.9294 14.9556 22.265 15.5048 21.5768 16.064C21.2452 16.3469 20.9428 16.6481 20.628 16.945L19.7676 17.801C18.8328 18.7782 17.9113 19.6683 17.0198 20.406C16.1246 21.1403 15.2877 21.6981 14.463 22.0875C13.6387 22.479 12.7568 22.7093 11.6073 22.7461C10.4678 22.7863 9.11974 22.5806 7.67775 22.2412C6.22801 21.9033 4.70562 21.4216 3.00439 21.0071C3.598 22.6539 4.49187 24.1091 5.63952 25.4394C6.80063 26.7466 8.25052 27.9381 10.1131 28.7217C11.9487 29.5227 14.2555 29.8102 16.4125 29.3764C18.5751 28.96 20.473 27.9592 22.007 26.8019C23.5451 25.6328 24.7893 24.301 25.8383 22.9162C26.1278 22.5337 26.281 22.3195 26.4906 22.0205L27.0698 21.1626C27.4723 20.6319 27.8388 20.0277 28.2373 19.5019C29.0184 18.4007 29.7883 17.3008 30.6831 16.2874C31.1335 15.7734 31.6085 15.2818 32.1691 14.8093C32.4489 14.5787 32.7509 14.353 33.0855 14.1497C33.4252 13.9305 33.784 13.7588 34.2257 13.6261Z" fill="#C3C3C3"/>
<path fill-rule="evenodd" clip-rule="evenodd" d="M34.2257 13.6261C33.56 11.9462 32.3223 10.5321 30.6613 9.4886C29.0099 8.45658 26.7168 7.92991 24.4445 8.37886C23.3217 8.59599 22.234 9.014 21.2796 9.57066C20.3294 10.1251 19.478 10.7925 18.7409 11.5086C18.373 11.8678 18.039 12.2425 17.7072 12.6194L16.8472 13.7158L15.5189 15.4808C13.8255 17.7518 12.0019 20.4131 9.0094 21.2017C6.07161 21.9759 4.79744 21.2903 3.00439 21.007C3.33226 21.8535 3.73835 22.6755 4.28892 23.3986C4.82922 24.1364 5.46739 24.8293 6.26081 25.4232C6.66176 25.7085 7.08509 25.9901 7.55527 26.2289C8.02329 26.4596 8.528 26.6627 9.06673 26.8156C10.1383 27.1093 11.3448 27.2121 12.5129 27.0542C13.6815 26.8983 14.7986 26.5278 15.775 26.036C16.7586 25.5488 17.6154 24.9554 18.3805 24.3293C19.9014 23.0662 21.0844 21.6707 22.0836 20.26C22.5863 19.5548 23.0425 18.8362 23.4645 18.1174L23.9611 17.2616C24.113 17.0115 24.2665 16.7598 24.4226 16.5254C25.0518 15.5837 25.6673 14.8286 26.4149 14.2618C27.152 13.6804 28.1787 13.2508 29.5505 13.151C30.9165 13.05 32.4936 13.2365 34.2257 13.6261Z" fill="black"/>
<path fill-rule="evenodd" clip-rule="evenodd" d="M26.835 27.5838C26.835 28.8175 27.8358 29.8184 29.0695 29.8184C30.3035 29.8184 31.3029 28.8175 31.3029 27.5838C31.3029 26.3501 30.3035 25.3492 29.0695 25.3492C27.8358 25.3492 26.835 26.3501 26.835 27.5838Z" fill="black"/>
<path d="M170.928 13.6331V11.3768C170.928 11.2873 170.856 11.2148 170.766 11.2148H157.91C157.821 11.2148 157.748 11.2873 157.748 11.3768V13.6331H162.973V28.2299H165.703V13.6331H170.928Z" fill="white"/>
<path d="M144.312 11.2148C144.222 11.2148 144.149 11.2873 144.149 11.3768V28.0677C144.149 28.1571 144.222 28.2299 144.312 28.2299H155.13C155.22 28.2299 155.292 28.1571 155.292 28.0677V25.8354H146.879V20.488H153.83V18.1416H146.879V13.6091H154.693V11.3768C154.693 11.2873 154.621 11.2148 154.531 11.2148H144.312Z" fill="white"/>
<path d="M138.038 28.1308L138.097 28.2299H140.194C140.283 28.2299 140.356 28.1571 140.356 28.0677V11.3768C140.356 11.2873 140.283 11.2148 140.194 11.2148H137.674V22.9986C137.236 22.302 136.728 21.5353 136.15 20.6985C135.413 19.6095 134.621 18.5047 133.772 17.3843C132.94 16.2479 132.092 15.1513 131.227 14.0946C130.378 13.0211 129.576 12.0822 128.82 11.2786L128.76 11.2148H126.787C126.697 11.2148 126.625 11.2873 126.625 11.3768V28.0677C126.625 28.1571 126.697 28.2299 126.787 28.2299H129.306V15.6062C129.651 16.0131 130.018 16.4641 130.407 16.9592C130.933 17.6282 131.474 18.3453 132.032 19.1105L132.033 19.1114L132.034 19.1122C132.591 19.861 133.149 20.6418 133.707 21.4547L133.708 21.4558L133.708 21.4569C134.282 22.2702 134.832 23.0754 135.358 23.8725L135.359 23.8732L135.36 23.874C135.885 24.6546 136.371 25.4111 136.817 26.1433L136.817 26.1445L136.818 26.146C137.281 26.8797 137.688 27.5414 138.038 28.1308Z" fill="white"/>
<path d="M123.327 11.5537L123.389 11.4859C123.484 11.3819 123.41 11.2148 123.27 11.2148H120.281L120.22 11.285C119.823 11.7452 119.33 12.286 118.741 12.9077C118.166 13.5141 117.551 14.1526 116.897 14.8231C116.243 15.4934 115.58 16.1636 114.91 16.8339C114.374 17.3572 113.874 17.8396 113.409 18.281V11.2148H110.842C110.752 11.2148 110.68 11.2873 110.68 11.3768V28.0677C110.68 28.1571 110.752 28.2299 110.842 28.2299H113.409V20.5107C113.973 20.8798 114.549 21.3116 115.138 21.8067L115.139 21.8074L115.14 21.8081C115.853 22.3944 116.55 23.0366 117.233 23.7347L117.234 23.7363L117.236 23.738C117.933 24.4197 118.591 25.1409 119.21 25.9019L119.21 25.9027L119.211 25.9037C119.829 26.6488 120.375 27.3929 120.85 28.1363L120.91 28.2299H123.823C123.948 28.2299 124.026 28.095 123.963 27.987L123.929 27.9265C123.491 27.1655 122.943 26.3667 122.283 25.53C121.64 24.6945 120.95 23.8755 120.211 23.0726C119.472 22.2696 118.717 21.5145 117.946 20.8074C117.247 20.1669 116.579 19.617 115.943 19.1584C116.484 18.6301 117.058 18.0629 117.664 17.4566C118.336 16.7849 119.008 16.1053 119.679 15.4177C120.367 14.714 121.023 14.0342 121.647 13.3784L121.647 13.3775L121.648 13.3766C122.272 12.7052 122.832 12.0975 123.327 11.5537Z" fill="white"/>
<path fill-rule="evenodd" clip-rule="evenodd" d="M95.1834 11.0873C95.094 11.0873 95.0215 11.1598 95.0215 11.2493V28.078C95.0215 28.1676 95.094 28.2401 95.1834 28.2401H97.4966V22.0526H100.876C101.256 22.5078 101.627 22.9841 101.988 23.4814L101.99 23.4833L101.991 23.4851C102.583 24.2606 103.129 25.0695 103.631 25.9122L103.631 25.9129L103.632 25.9139C104.086 26.6595 104.483 27.3959 104.822 28.1231L104.876 28.2401H107.613C107.731 28.2401 107.809 28.1192 107.76 28.0124C107.445 27.3227 107.104 26.6471 106.725 25.9891C106.21 25.0695 105.646 24.1588 105.031 23.2575C104.68 22.7424 104.321 22.242 103.955 21.7563C104.976 21.4441 105.784 20.8796 106.368 20.0603L106.368 20.0597C107.07 19.0681 107.417 17.9019 107.417 16.5699C107.417 15.6546 107.258 14.8171 106.936 14.0603C106.613 13.2926 106.127 12.6558 105.479 12.1535C104.835 11.6485 104.042 11.3272 103.108 11.183C102.891 11.1429 102.666 11.1189 102.434 11.1107C102.207 11.0951 102.01 11.0872 101.842 11.0872C101.132 11.0872 100.422 11.0871 99.7126 11.087C98.2028 11.0869 96.6932 11.0868 95.1834 11.0873ZM104.896 16.5699C104.896 17.012 104.822 17.447 104.674 17.8758C104.53 18.2876 104.299 18.6486 103.98 18.9605C103.677 19.2559 103.279 19.4653 102.773 19.5825C102.613 19.6189 102.441 19.6447 102.256 19.6595L102.256 19.6595L102.255 19.6595C102.073 19.6747 101.912 19.6821 101.772 19.6821H97.4966V13.4577H101.772C101.912 13.4577 102.073 13.4651 102.255 13.4803L102.26 13.4806L102.264 13.4808C102.444 13.488 102.611 13.5131 102.766 13.5552L102.77 13.5566L102.776 13.5577C103.279 13.6672 103.676 13.8759 103.978 14.1776L103.979 14.1785L103.98 14.1793C104.298 14.4907 104.529 14.8553 104.674 15.2751V15.2757L104.675 15.2762C104.822 15.6967 104.896 16.1277 104.896 16.5699Z" fill="white"/>
<path fill-rule="evenodd" clip-rule="evenodd" d="M88.948 25.9834L88.9483 25.9841L88.9485 25.9849C89.1886 26.6736 89.4449 27.3782 89.7172 28.0988L89.7666 28.2299H92.505C92.6174 28.2299 92.6957 28.1181 92.6572 28.0124C92.0591 26.369 91.4552 24.7275 90.8392 23.0908C90.2796 21.5877 89.7279 20.1642 89.1839 18.8204C88.656 17.4766 88.1279 16.1965 87.5998 14.9801C87.07 13.7438 86.5124 12.5198 85.9316 11.3067C85.9045 11.2505 85.8479 11.2148 85.7856 11.2148H83.6014C83.5391 11.2148 83.4823 11.2505 83.4555 11.3067C82.8745 12.5198 82.3171 13.7439 81.7872 14.9802C81.2591 16.1962 80.7233 17.4759 80.1796 18.8194L80.1791 18.8204L80.1788 18.8213C79.651 20.1647 79.1072 21.5878 78.5478 23.0907C77.9316 24.7275 77.3278 26.369 76.7297 28.0124C76.6912 28.1181 76.7694 28.2299 76.8819 28.2299H79.5033L79.5035 28.2296H79.5546L79.6147 28.1651C80.2471 27.4862 80.954 26.8198 81.7356 26.1664L81.7363 26.1659L81.7371 26.1651C82.5217 25.4952 83.3398 24.874 84.1911 24.3012L84.1931 24.3L84.1949 24.2985C85.0336 23.706 85.8777 23.1742 86.7271 22.7031L86.7281 22.7026L86.7291 22.702C87.035 22.5279 87.3362 22.3657 87.6326 22.2154L88.2057 23.8522L88.2062 23.8535C88.4614 24.5716 88.7087 25.2815 88.948 25.9834ZM86.0021 17.9124L86.0026 17.9137L86.0031 17.9151C86.2338 18.499 86.4644 19.0927 86.6951 19.6962C86.678 19.7038 86.6603 19.7117 86.6425 19.7198C85.8308 20.0895 84.9583 20.5674 84.0255 21.1525C83.1324 21.7126 82.2463 22.3212 81.3674 22.9781L81.7396 21.9153C82.2319 20.5339 82.7243 19.2 83.2166 17.9137C83.6692 16.7537 84.1407 15.6379 84.6308 14.5663C85.1066 15.6374 85.5637 16.7528 86.0021 17.9124Z" fill="white"/>
<path d="M77.3983 13.6331V11.3768C77.3983 11.2873 77.3258 11.2148 77.2361 11.2148H64.3801C64.2908 11.2148 64.2183 11.2873 64.2183 11.3768V13.6331H69.4432V28.0677C69.4432 28.1571 69.5157 28.2299 69.6053 28.2299H72.0112C72.1006 28.2299 72.1731 28.1571 72.1731 28.0677V13.6331H77.3983Z" fill="white"/>
<path d="M52.4222 28.0228L52.4215 28.0226C51.4313 27.6005 50.6077 26.9979 49.9547 26.2143L49.954 26.2133L49.9533 26.2126C49.307 25.419 48.8871 24.4835 48.6922 23.4109C48.6825 23.3572 48.6947 23.3019 48.7262 23.2574C48.7578 23.213 48.8059 23.1831 48.8598 23.1746L51.0375 22.8314C51.1406 22.8152 51.2391 22.8799 51.2649 22.981C51.5296 24.0092 52.0744 24.8073 52.9002 25.3858C53.7384 25.9593 54.7268 26.2491 55.8739 26.2491C56.618 26.2491 57.2829 26.1341 57.8716 25.9079C58.467 25.674 58.9293 25.346 59.2667 24.9279C59.5987 24.5168 59.7662 24.0298 59.7662 23.4575C59.7662 23.1022 59.7032 22.8113 59.5862 22.5776C59.5852 22.5755 59.5842 22.5734 59.5833 22.5712C59.4695 22.3222 59.3106 22.1142 59.1058 21.9448C59.1038 21.9432 59.1018 21.9415 59.1001 21.9398C58.8945 21.7563 58.6584 21.6012 58.391 21.4748C58.1174 21.3456 57.8321 21.239 57.5349 21.1552L57.5322 21.1545L53.1884 19.8643C52.7048 19.7193 52.2372 19.5379 51.7858 19.3202L51.7846 19.3196L51.7831 19.3189C51.3248 19.0897 50.9141 18.8066 50.5521 18.4694L50.5511 18.4683L50.5504 18.4677C50.1834 18.1174 49.8924 17.701 49.6772 17.2206L49.6767 17.2194C49.4577 16.7228 49.3517 16.1455 49.3517 15.4928C49.3517 14.4464 49.622 13.5428 50.172 12.7931L50.1722 12.7928C50.7244 12.0427 51.469 11.4727 52.3986 11.0812C53.3272 10.6903 54.3688 10.5011 55.5203 10.5091C56.6873 10.5171 57.737 10.7265 58.6656 11.1417C59.6014 11.5487 60.3775 12.1363 60.9903 12.9043C61.6125 13.674 62.0274 14.5924 62.2382 15.6545C62.2488 15.708 62.2374 15.7635 62.2066 15.8085C62.1759 15.8534 62.1282 15.884 62.0746 15.8934L59.8377 16.2839C59.7846 16.2932 59.7302 16.281 59.6863 16.2499C59.6421 16.2189 59.6123 16.1716 59.6034 16.1185C59.4904 15.4558 59.2396 14.8936 58.8538 14.4263L58.8516 14.4236C58.4702 13.945 57.992 13.5783 57.4135 13.3229L57.4115 13.322C56.8318 13.0585 56.1932 12.9217 55.493 12.9141H55.4928C54.8216 12.9065 54.2218 13.0133 53.69 13.2304C53.1566 13.4483 52.7405 13.7488 52.4336 14.1288L52.4324 14.1303C52.1312 14.4959 51.9815 14.9157 51.9815 15.3981C51.9815 15.8771 52.1181 16.2466 52.3765 16.5259C52.6553 16.8193 52.9982 17.0562 53.4084 17.2353C53.8431 17.4138 54.265 17.5608 54.6744 17.6767L54.6754 17.677L57.917 18.6116C58.2949 18.7162 58.7264 18.8602 59.2111 19.0428C59.7183 19.2311 60.2074 19.4963 60.6782 19.8371C61.1628 20.1799 61.5608 20.6377 61.8734 21.2053C62.1947 21.7803 62.3487 22.4954 62.3487 23.3391C62.3487 24.1872 62.1773 24.9495 61.8292 25.6209C61.4916 26.288 61.0174 26.8484 60.4091 27.3005L60.4076 27.3015C59.8027 27.743 59.1023 28.0762 58.3093 28.3029C57.5158 28.5375 56.6681 28.6542 55.7674 28.6542C54.5371 28.6542 53.4208 28.4451 52.4222 28.0228Z" fill="white"/>
</svg>
